PathFileType	4	(X/Y/Z)	C:\Users\Basilio\Documents\Thesis Gigler\squatting_fais\c3dfiles\041\SLS_pre_back2\markers_experimental.trc
DataRate	CameraRate	NumFrames	NumMarkers	Units	OrigDataRate	OrigDataStartFrame	OrigNumFrames
200.000000	200.000000	4	63	mm	200.000000	1148	1837
Frame#	Time	FHD			LBHD			RBHD			C7			T10			CLAV			LSHO			LUUPA			LMUPA			LDUPA			LLEP			LMEP			LRAD			LUL			LRFIN			RSHO			RUPA1			RMUPA			RDUPA			RLEP			RMEP			RRAD			RUL			RUFIN			LASI			RASI			USACR			LSACR			RSACR			LTHI1			LTHI2			LTHI3			LTHI4			LLFC			LMFC			LTIB1			LTIB2			LTIB3			LTIB4			LLMAL			LMMAL			LHEE			LMT1			LMT2			LMT5			RTHI			RTHI2			RTHI3			RTHI4			RLFC			RMFC			RTIB1			RTIB2			RTIB3			RTIB4			RLMAL			RMMAL			RHEE			RMT1			RMT2			RMT5			*61			*62			
		X1	Y1	Z1	X2	Y2	Z2	X3	Y3	Z3	X4	Y4	Z4	X5	Y5	Z5	X6	Y6	Z6	X7	Y7	Z7	X8	Y8	Z8	X9	Y9	Z9	X10	Y10	Z10	X11	Y11	Z11	X12	Y12	Z12	X13	Y13	Z13	X14	Y14	Z14	X15	Y15	Z15	X16	Y16	Z16	X17	Y17	Z17	X18	Y18	Z18	X19	Y19	Z19	X20	Y20	Z20	X21	Y21	Z21	X22	Y22	Z22	X23	Y23	Z23	X24	Y24	Z24	X25	Y25	Z25	X26	Y26	Z26	X27	Y27	Z27	X28	Y28	Z28	X29	Y29	Z29	X30	Y30	Z30	X31	Y31	Z31	X32	Y32	Z32	X33	Y33	Z33	X34	Y34	Z34	X35	Y35	Z35	X36	Y36	Z36	X37	Y37	Z37	X38	Y38	Z38	X39	Y39	Z39	X40	Y40	Z40	X41	Y41	Z41	X42	Y42	Z42	X43	Y43	Z43	X44	Y44	Z44	X45	Y45	Z45	X46	Y46	Z46	X47	Y47	Z47	X48	Y48	Z48	X49	Y49	Z49	X50	Y50	Z50	X51	Y51	Z51	X52	Y52	Z52	X53	Y53	Z53	X54	Y54	Z54	X55	Y55	Z55	X56	Y56	Z56	X57	Y57	Z57	X58	Y58	Z58	X59	Y59	Z59	X60	Y60	Z60	X61	Y61	Z61	X62	Y62	Z62	X63	Y63	Z63	

1149	5.74	-8.191102981567385	1442.408569335938	-1145.840454101563	-193.8850708007813	1383.221313476563	-1205.515258789063	-163.4740295410157	1394.70458984375	-1055.40966796875	-239.2916717529297	1289.412475585938	-1128.368896484375	-429.1048583984376	1056.589721679688	-1075.779296875	nan	nan	nan	-164.1011352539063	1281.925048828125	-1250.766235351563	-55.77545166015626	1285.549072265625	-1366.404174804688	-12.08501815795899	1285.5205078125	-1343.238403320313	4.166249752044679	1284.771240234375	-1402.689819335938	46.79088592529298	1279.701293945313	-1418.546142578125	78.12911224365236	1201.021850585938	-1398.972778320313	319.4169921875001	1291.517456054688	-1436.271362304688	304.5130615234376	1303.580322265625	-1507.712768554688	381.5850219726563	1339.506713867188	-1440.199829101563	-136.5090637207032	1295.814086914063	-1027.727294921875	18.35645484924317	1296.634521484375	-936.390075683594	30.69968414306641	1316.702270507813	-981.882263183594	84.51985931396486	1315.29443359375	-955.3221435546877	128.7213745117188	1316.4658203125	-965.1148071289065	144.6198120117188	1233.211059570313	-982.5200805664065	381.5745544433594	1309.567138671875	-1063.59130859375	388.0482482910157	1336.457885742188	-992.5903320312502	466.1761474609376	1325.715454101563	-1077.102172851563	-351.3965148925782	831.6130981445315	-1162.92333984375	-392.1507568359376	809.4252929687502	-944.1949462890627	-504.580535888672	957.752868652344	-1068.175048828125	-526.4108886718751	941.9534301757815	-1100.275146484375	-536.2738037109376	937.967712402344	-1045.745361328125	-383.6318969726563	677.0792236328126	-1241.6865234375	-305.0728454589844	646.9361572265626	-1229.150024414063	-273.7725830078126	680.2559814453126	-1217.89111328125	-289.1705932617188	587.8216552734376	-1219.021118164063	-169.7003021240235	472.6515502929689	-1177.003051757813	-174.836898803711	470.6136169433595	-1062.191528320313	-210.3033752441407	298.5256652832032	-1099.368408203125	-267.1407470703126	269.5391235351563	-1162.627197265625	-236.3632812500001	254.8273925781251	-1132.9296875	-275.9929199218751	192.492172241211	-1092.799194335938	-368.1728210449219	125.4358444213867	-1134.982666015625	-337.9989318847657	136.4660034179688	-1047.853393554688	-443.6855773925782	111.7221984863282	-1095.362182617188	-241.0238494873047	60.42064666748048	-1050.181274414063	-230.0581665039063	55.9510955810547	-1093.577026367188	-272.2960205078126	41.92959594726563	-1152.633178710938	-555.6801147460939	574.3410034179689	-903.9087524414065	-525.5661621093751	514.6976318359376	-900.1914062500002	-492.8199768066407	511.0284118652345	-903.293151855469	-562.1762084960939	441.091766357422	-922.8454589843752	-580.9599609375001	351.5737609863282	-927.0754394531252	-582.5841674804689	327.8180847167969	-1041.398559570313	-725.3869018554689	283.5791625976563	-941.058288574219	-814.3913574218752	356.0952453613282	-926.652038574219	-808.1364746093752	309.2786560058594	-930.015563964844	-851.352966308594	280.5546569824219	-957.909362792969	-977.6050415039065	315.8315429687501	-943.9681396484377	-949.193298339844	295.9980773925782	-1023.068969726563	-1040.999145507813	354.9822998046876	-993.1372680664065	-954.2735595703127	155.223861694336	-1008.861877441406	-949.2951660156252	150.7180633544922	-955.8189697265627	-989.7601318359377	179.4448547363282	-909.9428710937502	nan	nan	nan	-4216.983398437501	853.1580810546877	-3944.606933593751	
1150	5.745	-7.633737087249758	1441.91796875	-1145.608764648438	-193.5424194335938	1382.64697265625	-1205.2724609375	-163.1072845458985	1394.311401367188	-1055.23828125	-239.4158782958985	1289.318115234375	-1128.204467773438	-429.0921325683595	1056.344970703125	-1075.717529296875	nan	nan	nan	-163.9243621826172	1281.53369140625	-1250.673828125	-55.5579299926758	1285.334594726563	-1366.166381835938	-11.73920345306397	1285.20751953125	-1343.129028320313	4.7329421043396	1284.447509765625	-1402.445556640625	47.11497879028321	1279.487915039063	-1418.416137695313	78.56518554687501	1200.639282226563	-1398.855834960938	319.7544555664063	1291.237182617188	-1436.615234375	304.4625854492188	1303.434204101563	-1507.88916015625	381.7516174316407	1339.246704101563	-1440.450317382813	-136.3985595703125	1295.50244140625	-1027.602172851563	18.81527900695801	1296.015380859375	-936.4390258789065	30.95976448059083	1316.31787109375	-981.908386230469	84.73297119140626	1314.770263671875	-955.3372192382815	128.9585266113282	1316.058959960938	-965.253601074219	144.6581115722657	1232.656372070313	-982.7310791015627	381.8664245605469	1308.87646484375	-1063.938598632813	388.2818908691407	1335.748046875	-992.804626464844	466.1398010253907	1325.108642578125	-1077.377197265625	-351.0924377441407	831.7527465820315	-1162.853271484375	-392.1889648437501	809.095642089844	-944.194030761719	-504.6492614746095	957.5618286132815	-1068.188110351563	-526.3827514648439	941.7700805664065	-1100.306030273438	-536.3534545898439	937.787292480469	-1046.02978515625	-383.4525146484376	677.0148925781251	-1241.659545898438	-304.9339904785157	646.7747192382814	-1229.022705078125	-273.2521667480469	679.8983154296876	-1217.592163085938	-289.0467529296876	587.5581054687501	-1218.882690429688	-169.6759185791016	472.5666503906251	-1176.781982421875	-174.8065032958985	470.6025390625001	-1062.062133789063	-210.2364959716797	298.5065002441407	-1098.959350585938	-267.0739746093751	269.5109252929688	-1162.398559570313	-236.2164916992188	254.880111694336	-1132.712280273438	-276.0370788574219	192.4242706298829	-1092.572875976563	-368.1270446777344	125.4541015625	-1134.967407226563	-338.0625305175782	136.3997039794922	-1047.64892578125	-443.6697387695314	111.720458984375	-1095.31494140625	-241.0722045898438	60.41715621948244	-1050.125244140625	-229.8785400390626	54.85002899169923	-1093.749877929688	-272.3181762695313	41.9780616760254	-1152.604614257813	-555.4761352539064	573.7521972656251	-903.9221801757815	-525.2380371093751	514.2406616210939	-900.3621826171877	-492.3964843750001	510.6929321289064	-903.976989746094	-561.9406127929689	440.6979980468751	-923.140319824219	-580.6356811523439	351.2675170898438	-927.2972412109377	-582.1541748046876	327.5900878906251	-1041.888305664063	-725.0430908203126	283.4467163085938	-941.1658935546877	-813.820251464844	356.0374755859376	-926.7634277343752	-807.6562500000002	309.2676696777344	-930.258972167969	-850.9243774414065	280.7987670898438	-958.3468017578127	-977.152282714844	316.1269531250001	-944.0518188476565	-948.862243652344	296.2922668457032	-1023.227111816406	-1040.516479492188	355.4420166015626	-993.150573730469	-954.3630981445315	155.9925689697266	-1009.272216796875	-949.1456298828127	151.062240600586	-956.1245117187502	-989.3696289062502	179.4667510986328	-910.893005371094	nan	nan	nan	-4217.005859375001	853.1552734375002	-3944.625976562501	
1151	5.75	-7.418386936187746	1441.535766601563	-1145.4248046875	-193.3659973144532	1382.377319335938	-1205.15576171875	-162.8242645263672	1393.801025390625	-1055.064575195313	-239.0860443115235	1288.90087890625	-1128.1005859375	-429.0128173828126	1056.108520507813	-1075.682983398438	nan	nan	nan	-163.7542266845703	1281.179809570313	-1250.5654296875	-55.40063858032228	1285.173095703125	-1365.972412109375	-11.48203945159912	1284.901245117188	-1342.972534179688	4.276955127716065	1284.514892578125	-1402.4951171875	47.2005844116211	1279.313598632813	-1418.279174804688	78.63522338867189	1200.362548828125	-1398.863525390625	319.9313049316407	1291.720581054688	-1437.236572265625	304.5104064941407	1303.31201171875	-1508.120239257813	381.8341369628907	1339.067504882813	-1440.765747070313	-136.2697906494141	1295.080444335938	-1027.408325195313	19.04325485229493	1295.611450195313	-936.5503540039065	31.31792831420899	1315.888793945313	-981.923522949219	85.01454162597658	1314.395874023438	-955.4163818359377	129.2946929931641	1315.585205078125	-965.356628417969	144.973861694336	1232.355102539063	-983.666198730469	382.0352172851563	1308.52685546875	-1064.319458007813	388.4652099609376	1335.00634765625	-993.0891723632815	465.982391357422	1324.4345703125	-1077.6748046875	-351.0993652343751	831.4356689453127	-1162.756469726563	-392.3408508300782	808.851013183594	-944.1308593750002	-504.6172790527345	957.3328247070315	-1068.1396484375	-526.4027099609376	941.5767211914065	-1100.308959960938	-536.2881469726564	937.5515747070315	-1046.038818359375	-383.1903686523438	676.7502441406251	-1241.599243164063	-304.7932434082032	646.6851196289064	-1228.854125976563	-273.1286010742188	679.7604370117189	-1217.547729492188	-288.8322143554688	587.4218139648439	-1218.689453125	-169.5194244384766	472.4693908691407	-1176.522338867188	-174.7156372070313	470.4981079101564	-1061.882934570313	-210.0993041992188	298.2669067382813	-1098.715942382813	-266.8820495605469	269.4490051269532	-1162.194702148438	-236.1609039306641	254.9117431640626	-1132.558349609375	-276.0409240722657	192.3610076904297	-1092.431396484375	-368.1376342773438	125.4360504150391	-1134.931518554688	-338.0526123046876	136.2970428466797	-1047.562133789063	-443.697967529297	111.7270812988282	-1095.263793945313	-241.0795898437501	60.35988235473634	-1050.06298828125	-229.9874114990235	55.86625289916994	-1093.466064453125	-272.3486022949219	42.02059555053712	-1152.582397460938	-555.3637695312501	573.3168945312501	-904.1191406250002	-524.9873046875001	513.7188110351564	-900.5354614257815	-492.1421813964845	510.2715759277345	-904.282409667969	-561.4091796875001	440.172332763672	-923.5913085937502	-579.9115600585939	350.8494873046876	-927.9183349609377	-581.8687133789064	327.4318542480469	-1042.2802734375	-724.6560058593751	283.2647399902344	-941.6657714843752	-813.3218383789065	356.1142883300782	-926.9771118164065	-807.4869384765627	309.3994750976563	-930.4136962890627	-850.5871582031252	280.8041381835938	-958.7366943359377	-976.7279052734377	316.5186157226563	-944.1946411132815	-948.6649169921877	296.5835876464844	-1023.410339355469	-1040.063232421875	356.1248474121094	-993.3340454101565	-954.2519531250002	156.2518920898438	-1009.620544433594	-949.0677490234377	151.4119415283203	-956.3791503906252	-989.3530883789065	179.699935913086	-910.9827270507815	nan	nan	nan	-4216.692871093751	853.1428222656252	-3944.704833984376	
1152	5.755	-7.13456964492798	1441.125	-1145.168701171875	-193.0958557128907	1382.02490234375	-1204.967163085938	-162.5391693115235	1393.2490234375	-1054.909912109375	-238.8912048339844	1288.585205078125	-1127.933715820313	-428.9371948242189	1055.865844726563	-1075.647094726563	nan	nan	nan	-163.5995788574219	1280.845336914063	-1250.489501953125	-55.19392395019533	1284.92919921875	-1365.792602539063	-11.42575168609619	1284.599487304688	-1342.695068359375	4.415267944335938	1284.25146484375	-1402.31884765625	47.43882369995118	1279.084350585938	-1418.218139648438	78.76074981689455	1200.133544921875	-1398.861083984375	320.1991271972657	1291.612060546875	-1437.596923828125	304.5651550292969	1303.139526367188	-1508.343872070313	381.9012145996094	1338.922729492188	-1441.034301757813	-136.0965270996094	1294.668579101563	-1027.309814453125	19.08227920532227	1295.297119140625	-936.6114501953127	31.67191696166993	1315.48681640625	-982.0126953125002	85.5808563232422	1313.603759765625	-955.6284790039065	129.41015625	1314.68505859375	-965.2176513671877	145.2024688720703	1231.72119140625	-983.1106567382815	382.0210571289063	1308.076904296875	-1064.4453125	388.4994506835939	1334.450561523438	-993.1856079101565	466.0029602050782	1323.88818359375	-1077.858154296875	-351.4331970214844	830.4291992187502	-1162.739868164063	-392.4653320312501	808.5908203125002	-944.0240478515627	-504.295623779297	956.8279418945315	-1068.251708984375	-526.3937988281251	941.3984985351565	-1100.377075195313	-536.2495727539064	937.293640136719	-1045.958862304688	-383.0839538574219	676.5702514648439	-1241.533081054688	-304.6221618652344	646.6134033203126	-1228.734497070313	-272.9490661621094	679.6463012695314	-1217.4208984375	-288.7224731445313	587.2347412109376	-1218.501708984375	-169.4682312011719	472.452850341797	-1176.286987304688	-174.6499938964844	470.4163513183595	-1061.8125	-210.0508728027344	298.0505065917969	-1098.426025390625	-266.8803710937501	269.4364624023438	-1162.001708984375	-236.0906982421876	254.8981323242188	-1132.4111328125	-276.0211791992188	192.3694915771485	-1092.287719726563	-368.1056823730469	125.4462814331055	-1134.851318359375	-338.0733947753907	136.2821502685547	-1047.484619140625	-443.6080932617189	111.6660308837891	-1095.292236328125	-241.0227355957032	60.45342254638673	-1050.079467773438	-229.9825592041016	55.54473114013673	-1093.62060546875	-272.3489685058594	42.05717086791993	-1152.581909179688	-555.0291748046876	572.9072265625001	-904.3545532226565	-524.7067260742189	513.3959350585939	-900.8325805664065	-491.931610107422	509.6770324707032	-904.8483886718752	-561.2573242187501	439.8702087402345	-923.9629516601565	-579.2443847656251	350.4188537597657	-928.547546386719	-581.5653686523439	327.1918640136719	-1042.599487304688	-724.1062011718751	282.9505920410157	-942.3543090820315	-812.8960571289065	356.1776123046876	-927.130310058594	-806.9808349609377	309.5290222167969	-930.6606445312502	-850.1572875976565	280.8255310058594	-959.1530761718752	-976.3037719726565	316.8413696289063	-944.3181152343752	-948.681335449219	296.6440734863282	-1023.591552734375	-1039.539184570313	356.5927734375001	-993.3870849609377	-954.2795410156252	156.6112213134766	-1010.002502441406	-948.990661621094	151.6942138671875	-956.756042480469	-989.2152099609377	180.0234832763672	-911.229431152344	nan	nan	nan	-4217.038574218751	853.103454589844	-3944.687011718751	
